<?xml version="1.0" encoding="UTF-8"?>
<svg width="14px" height="14px" viewBox="0 0 14 14" version="1.1" xmlns="http://www.w3.org/2000/svg" xmlns:xlink="http://www.w3.org/1999/xlink">
    <title>play-circle</title>
    <g id="音视频中心" stroke="none" stroke-width="1" fill="none" fill-rule="evenodd">
        <g id="画板" transform="translate(-24.000000, -55.000000)">
            <g id="play-circle" transform="translate(24.000000, 55.000000)">
                <rect id="矩形" fill="#D8D8D8" opacity="0" x="0" y="0" width="14" height="14"></rect>
                <path d="M7,0 C10.8659932,0 14,3.13400675 14,7 C14,10.8659932 10.8659932,14 7,14 C3.13400675,14 0,10.8659932 0,7 C0,3.13400675 3.13400675,0 7,0 Z M7,1 C3.6862915,1 1,3.6862915 1,7 C1,10.3137085 3.6862915,13 7,13 C10.3137085,13 13,10.3137085 13,7 C13,3.6862915 10.3137085,1 7,1 Z M5.1,4.2 C5.1,3.80065231 5.54507273,3.56245661 5.8773501,3.78397485 L5.8773501,3.78397485 L10.0773501,6.58397485 C10.3742166,6.78188588 10.3742166,7.21811412 10.0773501,7.41602515 L10.0773501,7.41602515 L5.8773501,10.2160251 C5.54507273,10.4375434 5.1,10.1993477 5.1,9.8 L5.1,9.8 Z M6.1,5.135 L6.1,8.864 L8.897,7 L6.1,5.135 Z" id="形状结合" fill="#606266" fill-rule="nonzero"></path>
            </g>
        </g>
    </g>
</svg>