<?xml version="1.0" encoding="UTF-8"?>
<svg width="14px" height="14px" viewBox="0 0 14 14" version="1.1" xmlns="http://www.w3.org/2000/svg" xmlns:xlink="http://www.w3.org/1999/xlink">
    <title>layout</title>
    <g id="音视频中心" stroke="none" stroke-width="1" fill="none" fill-rule="evenodd">
        <g id="画板" transform="translate(-64.000000, -99.000000)">
            <g id="layout" transform="translate(63.500000, 98.500000)">
                <rect id="矩形" fill="#D8D8D8" opacity="0" x="0.5" y="0.5" width="14" height="14"></rect>
                <path d="M12.5555556,1 C13.3533002,1 14,1.64669981 14,2.44444444 L14,12.5555556 C14,13.3533002 13.3533002,14 12.5555556,14 L2.44444444,14 C1.64669981,14 1,13.3533002 1,12.5555556 L1,2.44444444 C1,1.64669981 1.64669981,1 2.44444444,1 L12.5555556,1 Z M13,4.75 L2,4.75 L2,12.5555556 C2,12.7737421 2.15722236,12.9552074 2.36455499,12.9928394 L2.44444444,13 L12.5555556,13 C12.7737421,13 12.9552074,12.8427776 12.9928394,12.635445 L13,12.5555556 L13,4.75 Z M8.7962373,6.5975123 L8.8646187,6.65638936 L10.7476518,8.59617851 L10.7562359,8.60524149 C10.7699289,8.62006331 10.7827361,8.63571561 10.7945735,8.65211433 L10.7476518,8.59617851 C10.773845,8.62316115 10.7964032,8.65237523 10.8153196,8.68320148 C10.8236842,8.69682161 10.8317352,8.71148448 10.8390502,8.72657054 C10.8450721,8.73904872 10.8503752,8.75127312 10.8551679,8.76365054 C10.8605748,8.77749829 10.8653486,8.79164561 10.8694916,8.80605993 C10.8904853,8.87941145 10.8944621,8.9565815 10.881314,9.03138577 L10.8888889,8.94444444 C10.8888889,9.03868351 10.8628173,9.12683322 10.8174934,9.20207425 C10.8165853,9.20360354 10.8156034,9.20521409 10.8146115,9.2068203 L10.802295,9.22576984 C10.7899729,9.24384206 10.7764967,9.26106453 10.7619725,9.2773312 L10.7553946,9.28455264 L8.87236145,11.3137373 C8.68452488,11.5161528 8.36816307,11.5279714 8.16574757,11.3401348 C7.98582268,11.1731689 7.95649291,10.9046523 8.0841201,10.7048804 L8.13935008,10.6335209 L9.242,9.444 L4.61111111,9.44444444 C4.33496874,9.44444444 4.11111111,9.22058682 4.11111111,8.94444444 C4.11111111,8.69898456 4.28798627,8.49483607 4.52123548,8.45250011 L4.61111111,8.44444444 L9.206,8.444 L8.14709284,7.35292123 C7.9761222,7.17679741 7.96083878,6.90711641 8.09871277,6.71427376 L8.15758983,6.64589237 C8.33371365,6.47492173 8.60339465,6.45963831 8.7962373,6.5975123 Z M12.5555556,2 L2.44444444,2 C2.22625788,2 2.04479256,2.15722236 2.0071606,2.36455499 L2,2.44444444 L2,3.75 L13,3.75 L13,2.44444444 C13,2.22625788 12.8427776,2.04479256 12.635445,2.0071606 L12.5555556,2 Z" id="形状结合" fill="#0A6FEB" fill-rule="nonzero"></path>
            </g>
        </g>
    </g>
</svg>