<?xml version="1.0" encoding="UTF-8"?>
<svg width="15px" height="14px" viewBox="0 0 15 14" version="1.1" xmlns="http://www.w3.org/2000/svg" xmlns:xlink="http://www.w3.org/1999/xlink">
    <title>系统管理</title>
    <g id="音视频中心" stroke="none" stroke-width="1" fill="none" fill-rule="evenodd">
        <g id="搜索" transform="translate(-24.000000, -295.000000)">
            <g id="侧边栏" transform="translate(0.000000, 60.000000)">
                <g id="系统管理" transform="translate(24.000613, 235.000000)">
                    <rect id="矩形" fill="#D8D8D8" opacity="0" x="-0.000613490245" y="0" width="14" height="14"></rect>
                    <path d="M7.00012744,0 C7.61091359,0 8.20273928,0.0728125 8.76896024,0.2121875 C8.91926646,0.249166667 9.04087541,0.352769097 9.10518357,0.486554543 L9.13666355,0.57015625 L9.56092413,2.09046875 C9.69154065,2.15401042 9.81985237,2.22102431 9.94485097,2.29289931 L10.129738,2.40453125 L11.7037804,1.99953125 C11.7491559,1.9878125 11.7955037,1.98203125 11.8416894,1.98203125 C11.9776537,1.98203125 12.1107011,2.03203125 12.207448,2.12765625 C13.0445144,2.95532267 13.654208,3.97125647 13.9813046,5.0834375 C14.023709,5.22744792 13.9919507,5.38144097 13.9039419,5.50228516 L13.8445299,5.57046875 L12.6876177,6.6859375 C12.6939378,6.79046875 12.7041473,6.8940625 12.7041473,7 L12.6981918,7.15755859 L12.6981918,7.15755859 L12.6876177,7.3140625 L13.8445299,8.42953125 C13.9762808,8.5565625 14.0321899,8.74375 13.9814666,8.9165625 C13.65437,10.0287435 13.0446764,11.0446773 12.2076101,11.8723437 C12.1108631,11.9679687 11.9776537,12.0179687 11.8418515,12.0179687 L11.7726539,12.0136133 L11.7726539,12.0136133 L11.7039425,12.0004687 L10.1299,11.5954688 C10.0084667,11.6725521 9.88321597,11.7441493 9.75515633,11.8115104 L9.56108619,11.9095313 L9.13698766,13.4296875 C9.0886952,13.6029687 8.94965182,13.7432812 8.76928435,13.7876562 C8.20273928,13.9271875 7.61091359,14 7.00012744,14 C6.38934129,14 5.7975156,13.9271875 5.23080847,13.7876562 C5.08050225,13.7506771 4.95889331,13.6470747 4.89458514,13.5132892 L4.86310516,13.4296875 L4.43900664,11.9095313 C4.30839012,11.8459896 4.1800784,11.7789757 4.0550798,11.7071007 L3.87019279,11.5954688 L2.29615037,12.0004687 C2.25077491,12.0121875 2.20426506,12.0179687 2.15824137,12.0179687 C2.02227704,12.0179687 1.8892297,11.9679687 1.79248273,11.8723437 C0.95541638,11.0446773 0.345722819,10.0287435 0.0186262133,8.9165625 C-0.0237782377,8.77255208 0.00798008523,8.61855903 0.0959888277,8.49771484 L0.155400825,8.42953125 L1.31231309,7.3140625 C1.30599294,7.20953125 1.29578346,7.1059375 1.29578346,7 L1.30173899,6.84244141 L1.30173899,6.84244141 L1.31231309,6.6859375 L0.155400825,5.57046875 C0.0236499254,5.4434375 -0.0322591279,5.25625 0.0186262133,5.0834375 C0.350677373,3.9540625 0.969242174,2.9415625 1.79248273,2.12765625 C1.8892297,2.03203125 2.02243909,1.98203125 2.15824137,1.98203125 L2.22743895,1.98638672 L2.22743895,1.98638672 L2.29615037,1.99953125 L3.87019279,2.40453125 C3.99162617,2.32744792 4.11687686,2.25585069 4.2449365,2.18848958 L4.43900664,2.09046875 L4.86326722,0.5703125 C4.91155968,0.39703125 5.05060306,0.25671875 5.23097053,0.21234375 C5.7975156,0.0728125 6.38934129,0 7.00012744,0 Z M7.00012744,1 C6.69153377,1 6.38521901,1.02188477 6.0841913,1.06532471 L5.78503735,1.1159375 L5.31993885,2.78234375 L4.90572569,2.98359375 C4.78807359,3.04078125 4.68122518,3.09713542 4.58253955,3.15404514 L4.44030308,3.24 L4.05201875,3.48640625 L2.32661675,3.0425 C1.85329395,3.55984375 1.47550777,4.1554248 1.21279979,4.79668915 L1.10731323,5.07421875 L2.37426099,6.29578125 L2.34103967,6.84265625 C2.33747445,6.89484375 2.33293691,6.94703125 2.33293691,7.00015625 L2.33559056,7.07925781 L2.33559056,7.07925781 L2.37426099,7.70453125 L1.10731323,8.92609375 C1.33674291,9.57974609 1.68404246,10.1923657 2.12967028,10.7313986 L2.32661675,10.9578125 L4.05201875,10.5139063 L4.44030308,10.7603125 C4.53148615,10.818125 4.62958358,10.8746875 4.73709222,10.9313426 L4.90572569,11.0165625 L5.3201009,11.2178125 L5.78503735,12.8842188 C6.18126238,12.9610938 6.58866922,13 7.00012744,13 C7.30872111,13 7.61503587,12.9781152 7.91606358,12.9346753 L8.21521753,12.8840625 L8.68015398,11.2176563 L9.09452919,11.0164063 C9.21207325,10.9593229 9.31895767,10.9030035 9.41767932,10.8461053 L9.5599518,10.7601563 L9.94823613,10.51375 L11.6736381,10.9576563 C12.1469609,10.4401758 12.5247471,9.84457764 12.7874551,9.20341583 L12.8929417,8.9259375 L11.6259939,7.704375 L11.6592152,7.1575 C11.6627804,7.1053125 11.667318,7.053125 11.667318,7 L11.6259939,6.295625 L12.8929417,5.0740625 C12.663512,4.42041016 12.3162124,3.80791016 11.8705846,3.26880249 L11.6736381,3.04234375 L9.94823613,3.48625 L9.5599518,3.23984375 C9.46876873,3.18203125 9.37074332,3.12546875 9.26323468,3.06876736 L9.09452919,2.9834375 L8.68031603,2.7821875 L8.21521753,1.11578125 C7.8189925,1.03890625 7.41158566,1 7.00012744,1 Z M6.99938651,4.5 C8.38016776,4.5 9.49938651,5.61921875 9.49938651,7 C9.49938651,8.38078125 8.38016776,9.5 6.99938651,9.5 C5.61860526,9.5 4.49938651,8.38078125 4.49938651,7 C4.49938651,5.61921875 5.61860526,4.5 6.99938651,4.5 Z M6.99938651,5.5 C6.17219901,5.5 5.49938651,6.17296875 5.49938651,7 C5.49938651,7.82703125 6.17219901,8.5 6.99938651,8.5 C7.82657401,8.5 8.49938651,7.82703125 8.49938651,7 C8.49938651,6.17296875 7.82657401,5.5 6.99938651,5.5 Z" id="形状" fill="#606266" fill-rule="nonzero"></path>
                </g>
            </g>
        </g>
    </g>
</svg>