<?xml version="1.0" encoding="UTF-8"?>
<svg width="14px" height="14px" viewBox="0 0 14 14" version="1.1" xmlns="http://www.w3.org/2000/svg" xmlns:xlink="http://www.w3.org/1999/xlink">
    <title>系统报表</title>
    <g id="音视频中心" stroke="none" stroke-width="1" fill="none" fill-rule="evenodd">
        <g id="画板" transform="translate(-64.000000, -23.000000)">
            <g id="系统报表" transform="translate(64.000000, 23.000000)">
                <rect id="矩形" fill="#D8D8D8" opacity="0" x="0" y="0" width="14" height="14"></rect>
                <path d="M11.6944444,0.5 C12.6417662,0.5 13.4186905,1.22955822 13.4940146,2.15747193 L13.5,2.30555556 L13.5,11.6944444 C13.5,12.6417662 12.7704418,13.4186905 11.8425281,13.4940146 L11.6944444,13.5 L2.30555556,13.5 C1.3582338,13.5 0.581309491,12.7704418 0.505985365,11.8425281 L0.5,11.6944444 L0.5,2.30555556 C0.5,1.3582338 1.22955822,0.581309491 2.15747193,0.505985365 L2.30555556,0.5 L11.6944444,0.5 Z M11.6944444,1.42857143 L2.30555556,1.42857143 C1.8584679,1.42857143 1.48952009,1.76312788 1.43540438,2.19554853 L1.42857143,2.30555556 L1.42857143,11.6944444 C1.42857143,12.1415321 1.76312788,12.5104799 2.19554853,12.5645956 L2.30555556,12.5714286 L11.6944444,12.5714286 C12.1415321,12.5714286 12.5104799,12.2368721 12.5645956,11.8044515 L12.5714286,11.6944444 L12.5714286,2.30555556 C12.5714286,1.8584679 12.2368721,1.48952009 11.8044515,1.43540438 L11.6944444,1.42857143 Z M9.88777778,5.66666667 C10.1332377,5.66666667 10.3373861,5.84354183 10.3797221,6.07679103 L10.3877778,6.16666667 L10.3877778,9.77777778 C10.3877778,10.0539202 10.1639202,10.2777778 9.88777778,10.2777778 C9.64231789,10.2777778 9.43816941,10.1009026 9.39583345,9.86765341 L9.38777778,9.77777778 L9.38777778,6.16666667 C9.38777778,5.89052429 9.6116354,5.66666667 9.88777778,5.66666667 Z M6.99888889,3.5 C7.24434878,3.5 7.44849726,3.67687516 7.49083322,3.91012437 L7.49888889,4 L7.49888889,9.77777778 C7.49888889,10.0539202 7.27503126,10.2777778 6.99888889,10.2777778 C6.753429,10.2777778 6.54928052,10.1009026 6.50694456,9.86765341 L6.49888889,9.77777778 L6.49888889,4 C6.49888889,3.72385763 6.72274651,3.5 6.99888889,3.5 Z M4.11,7.11111111 C4.35545989,7.11111111 4.55960837,7.28798627 4.60194433,7.52123548 L4.61,7.61111111 L4.61,9.77777778 C4.61,10.0539202 4.38614237,10.2777778 4.11,10.2777778 C3.86454011,10.2777778 3.66039163,10.1009026 3.61805567,9.86765341 L3.61,9.77777778 L3.61,7.61111111 C3.61,7.33496874 3.83385763,7.11111111 4.11,7.11111111 Z" id="形状" fill="#0A6FEB" fill-rule="nonzero"></path>
            </g>
        </g>
    </g>
</svg>